<svg xmlns="http://www.w3.org/2000/svg" xmlns:xlink="http://www.w3.org/1999/xlink" width="80" zoomAndPan="magnify" viewBox="0 0 60 60" height="80" preserveAspectRatio="xMidYMid meet" version="1.0"><defs><clipPath id="613af8233a"><path d="M 3.773438 11.148438 L 56.273438 11.148438 L 56.273438 48.648438 L 3.773438 48.648438 Z M 3.773438 11.148438 " clip-rule="nonzero"/></clipPath><clipPath id="66505dbdfa"><path d="M 21 11.148438 L 40 11.148438 L 40 48.648438 L 21 48.648438 Z M 21 11.148438 " clip-rule="nonzero"/></clipPath><clipPath id="1b2e02c899"><path d="M 3.773438 11.148438 L 56.273438 11.148438 L 56.273438 48.648438 L 3.773438 48.648438 Z M 3.773438 11.148438 " clip-rule="nonzero"/></clipPath></defs><g clip-path="url(#613af8233a)"><path fill="#dadbd7" d="M 55.308594 44.753906 L 40.597656 48.109375 C 39.789062 48.292969 38.949219 48.292969 38.144531 48.109375 L 21.8125 44.40625 C 20.984375 44.21875 20.125 44.242188 19.304688 44.476562 L 5.46875 48.425781 C 4.710938 48.640625 3.957031 48.066406 3.957031 47.269531 L 3.957031 16.875 C 3.957031 16.339844 4.3125 15.867188 4.824219 15.722656 L 19.386719 11.585938 C 20.203125 11.355469 21.066406 11.332031 21.894531 11.523438 L 38.058594 15.21875 C 38.867188 15.40625 39.707031 15.40625 40.519531 15.222656 L 54.871094 11.964844 C 55.496094 11.824219 56.089844 12.300781 56.089844 12.945312 L 56.089844 43.773438 C 56.089844 44.242188 55.765625 44.648438 55.308594 44.753906 " fill-opacity="1" fill-rule="nonzero"/></g><g clip-path="url(#66505dbdfa)"><path fill="#efefed" d="M 39.382812 15.355469 C 38.9375 15.363281 38.496094 15.320312 38.058594 15.21875 L 21.894531 11.523438 C 21.671875 11.472656 21.449219 11.4375 21.226562 11.414062 L 21.226562 44.308594 C 21.421875 44.328125 21.617188 44.363281 21.8125 44.40625 L 38.144531 48.109375 C 38.550781 48.203125 38.96875 48.246094 39.382812 48.246094 L 39.382812 15.355469 " fill-opacity="1" fill-rule="nonzero"/></g><g clip-path="url(#1b2e02c899)"><path fill="#000000" d="M 20.769531 11.574219 C 20.316406 11.574219 19.867188 11.636719 19.433594 11.761719 L 4.875 15.894531 C 4.441406 16.019531 4.136719 16.421875 4.136719 16.875 L 4.136719 47.273438 C 4.136719 47.597656 4.289062 47.894531 4.546875 48.089844 C 4.796875 48.277344 5.117188 48.335938 5.417969 48.25 L 19.257812 44.300781 C 20.101562 44.0625 21 44.035156 21.855469 44.230469 L 38.183594 47.933594 C 38.957031 48.109375 39.78125 48.109375 40.554688 47.933594 L 55.269531 44.578125 C 55.644531 44.492188 55.90625 44.160156 55.90625 43.773438 L 55.90625 12.945312 C 55.90625 12.691406 55.792969 12.453125 55.59375 12.296875 C 55.398438 12.144531 55.152344 12.085938 54.910156 12.140625 L 40.558594 15.398438 C 39.726562 15.585938 38.851562 15.585938 38.019531 15.394531 L 21.855469 11.699219 C 21.496094 11.617188 21.132812 11.574219 20.769531 11.574219 Z M 5.140625 48.648438 C 4.851562 48.648438 4.566406 48.554688 4.328125 48.375 C 3.976562 48.113281 3.777344 47.710938 3.777344 47.273438 L 3.777344 16.875 C 3.777344 16.261719 4.1875 15.714844 4.773438 15.550781 L 19.335938 11.414062 C 20.179688 11.175781 21.078125 11.152344 21.9375 11.347656 L 38.101562 15.042969 C 38.878906 15.222656 39.699219 15.222656 40.476562 15.046875 L 54.832031 11.789062 C 55.179688 11.710938 55.539062 11.792969 55.820312 12.015625 C 56.105469 12.242188 56.269531 12.582031 56.269531 12.945312 L 56.269531 43.773438 C 56.269531 44.328125 55.890625 44.804688 55.351562 44.929688 L 55.3125 44.753906 L 55.351562 44.929688 L 40.636719 48.28125 C 39.808594 48.472656 38.929688 48.472656 38.101562 48.285156 L 21.773438 44.582031 C 20.976562 44.402344 20.140625 44.425781 19.355469 44.648438 L 5.519531 48.597656 C 5.394531 48.632812 5.269531 48.648438 5.140625 48.648438 " fill-opacity="1" fill-rule="nonzero"/></g><path fill="#88e5e1" d="M 52.878906 43.140625 L 39.578125 46.128906 C 38.847656 46.292969 38.09375 46.292969 37.363281 46.132812 L 22.601562 42.664062 C 21.855469 42.496094 21.074219 42.03125 20.335938 42.238281 L 7.148438 45.949219 C 6.804688 46.046875 6.464844 45.789062 6.464844 45.433594 L 6.464844 18.296875 C 6.464844 17.816406 6.785156 17.398438 7.246094 17.269531 L 20.40625 13.582031 C 21.148438 13.375 21.925781 13.355469 22.675781 13.523438 L 37.289062 17.347656 C 38.019531 17.511719 38.777344 17.511719 39.507812 17.347656 L 52.480469 14.445312 C 53.046875 14.320312 53.582031 14.746094 53.582031 15.320312 L 53.582031 42.265625 C 53.582031 42.683594 53.289062 43.046875 52.878906 43.140625 " fill-opacity="1" fill-rule="nonzero"/><path fill="#9aefe8" d="M 29.457031 23.886719 L 35.574219 17.003906 L 23.367188 14.820312 C 22.617188 14.652344 21.835938 14.671875 21.097656 14.878906 L 7.933594 18.566406 C 7.472656 18.695312 7.152344 19.113281 7.152344 19.59375 L 6.546875 39.605469 L 12.785156 32.441406 C 13.425781 31.640625 14.511719 31.347656 15.472656 31.714844 L 18.136719 32.742188 C 19.582031 33.296875 21.167969 32.328125 21.320312 30.792969 L 21.878906 25.226562 C 22.078125 23.207031 24.59375 22.386719 25.960938 23.890625 C 26.898438 24.921875 28.523438 24.917969 29.457031 23.886719 " fill-opacity="1" fill-rule="nonzero"/><path fill="#79d8d1" d="M 21.511719 41.800781 L 36.789062 45.390625 C 37.546875 45.558594 38.328125 45.558594 39.085938 45.390625 L 52.855469 42.292969 C 53.28125 42.199219 53.582031 41.824219 53.582031 41.390625 L 53.582031 29.082031 L 45.777344 29.082031 C 44.046875 29.082031 42.332031 29.371094 40.699219 29.941406 L 25.4375 35.28125 C 24.660156 35.550781 24.46875 36.554688 25.089844 37.089844 C 25.898438 37.789062 25.289062 39.101562 24.230469 38.949219 L 18.941406 38.1875 C 17.5 37.976562 16.039062 38.414062 14.953125 39.375 L 8.679688 45.621094 L 18.949219 41.980469 C 19.714844 41.765625 20.734375 41.628906 21.511719 41.800781 " fill-opacity="1" fill-rule="nonzero"/><path fill="#000000" d="M 20.730469 42.003906 C 21.152344 42.003906 21.566406 42.148438 21.972656 42.285156 C 22.203125 42.363281 22.425781 42.441406 22.644531 42.488281 L 37.402344 45.957031 C 38.101562 46.113281 38.839844 46.113281 39.539062 45.953125 L 52.839844 42.964844 L 52.878906 43.140625 L 52.839844 42.964844 C 53.171875 42.890625 53.402344 42.605469 53.402344 42.265625 L 53.402344 15.320312 C 53.402344 15.101562 53.300781 14.898438 53.128906 14.761719 C 52.957031 14.625 52.738281 14.574219 52.523438 14.621094 L 39.546875 17.523438 C 38.796875 17.691406 38 17.691406 37.246094 17.523438 L 37.242188 17.519531 L 22.632812 13.699219 C 21.917969 13.539062 21.164062 13.558594 20.457031 13.753906 L 7.296875 17.441406 C 6.914062 17.546875 6.644531 17.898438 6.644531 18.296875 L 6.644531 45.402344 C 6.644531 45.523438 6.699219 45.632812 6.796875 45.703125 C 6.894531 45.777344 7.015625 45.800781 7.132812 45.765625 L 20.289062 42.066406 C 20.433594 42.023438 20.582031 42.003906 20.730469 42.003906 Z M 38.46875 46.433594 C 38.082031 46.433594 37.695312 46.390625 37.320312 46.308594 L 22.5625 42.839844 C 22.324219 42.785156 22.085938 42.707031 21.855469 42.625 C 21.335938 42.449219 20.84375 42.28125 20.386719 42.410156 L 7.230469 46.113281 C 7.003906 46.175781 6.765625 46.132812 6.578125 45.992188 C 6.390625 45.851562 6.28125 45.636719 6.28125 45.402344 L 6.28125 18.296875 C 6.28125 17.738281 6.660156 17.246094 7.199219 17.09375 L 20.359375 13.410156 C 21.125 13.195312 21.941406 13.171875 22.71875 13.347656 L 22.722656 13.351562 L 37.332031 17.171875 C 38.03125 17.328125 38.769531 17.328125 39.46875 17.171875 L 52.441406 14.269531 C 52.765625 14.199219 53.097656 14.273438 53.355469 14.480469 C 53.617188 14.6875 53.765625 14.992188 53.765625 15.320312 L 53.765625 42.265625 C 53.765625 42.773438 53.417969 43.203125 52.917969 43.316406 L 39.621094 46.304688 C 39.242188 46.390625 38.855469 46.433594 38.46875 46.433594 " fill-opacity="1" fill-rule="nonzero"/><path fill="#a3e589" d="M 22.601562 42.664062 L 37.363281 46.132812 C 38.09375 46.292969 38.847656 46.292969 39.578125 46.128906 L 52.878906 43.140625 C 53.289062 43.046875 53.582031 42.683594 53.582031 42.265625 L 53.582031 30.378906 L 46.042969 30.378906 C 44.371094 30.378906 42.714844 30.660156 41.136719 31.210938 L 26.394531 36.363281 C 25.644531 36.628906 25.460938 37.59375 26.058594 38.113281 C 26.839844 38.789062 26.253906 40.058594 25.230469 39.910156 L 20.121094 39.171875 C 18.730469 38.972656 17.320312 39.390625 16.269531 40.324219 L 11.199219 44.808594 L 20.335938 42.238281 C 21.074219 42.03125 21.855469 42.496094 22.601562 42.664062 " fill-opacity="1" fill-rule="nonzero"/><path fill="#91d372" d="M 51.957031 30.378906 L 51.957031 40.652344 C 51.957031 41.070312 51.664062 41.433594 51.253906 41.527344 L 37.953125 44.515625 C 37.222656 44.679688 36.46875 44.679688 35.738281 44.515625 L 20.976562 41.050781 C 20.230469 40.882812 19.449219 40.414062 18.710938 40.621094 L 14.632812 41.769531 L 11.199219 44.808594 L 20.335938 42.238281 C 21.074219 42.03125 21.855469 42.496094 22.601562 42.664062 L 37.363281 46.132812 C 38.09375 46.292969 38.847656 46.292969 39.578125 46.128906 L 52.878906 43.140625 C 53.289062 43.046875 53.582031 42.683594 53.582031 42.265625 L 53.582031 30.378906 L 51.957031 30.378906 " fill-opacity="1" fill-rule="nonzero"/><path fill="#a3e589" d="M 26.773438 26.398438 L 26.914062 26.402344 C 27.355469 26.414062 27.769531 26.632812 28.03125 26.992188 L 28.621094 27.804688 C 28.929688 28.230469 28.976562 28.789062 28.746094 29.257812 L 27.511719 31.769531 C 27.363281 32.066406 27.117188 32.300781 26.816406 32.4375 L 24.5 33.476562 C 23.46875 33.941406 22.332031 33.082031 22.5 31.972656 C 22.570312 31.507812 22.863281 31.109375 23.285156 30.90625 L 24.722656 30.210938 C 25.375 29.894531 25.683594 29.144531 25.445312 28.464844 L 25.382812 28.285156 C 25.050781 27.347656 25.773438 26.367188 26.773438 26.398438 " fill-opacity="1" fill-rule="nonzero"/><path fill="#91d372" d="M 28.621094 27.804688 L 28.03125 26.992188 C 27.898438 26.804688 27.71875 26.65625 27.519531 26.554688 L 27.921875 27.109375 C 28.226562 27.535156 28.277344 28.09375 28.042969 28.5625 L 26.808594 31.070312 C 26.664062 31.367188 26.417969 31.605469 26.113281 31.742188 L 23.800781 32.78125 C 23.390625 32.964844 22.964844 32.941406 22.613281 32.773438 C 22.921875 33.441406 23.742188 33.820312 24.5 33.476562 L 26.816406 32.4375 C 27.117188 32.300781 27.363281 32.066406 27.511719 31.769531 L 28.746094 29.257812 C 28.976562 28.789062 28.929688 28.230469 28.621094 27.804688 " fill-opacity="1" fill-rule="nonzero"/><path fill="#a3e589" d="M 9.929688 41.914062 C 9.320312 41.710938 9.019531 41.027344 9.289062 40.445312 L 11.171875 36.375 C 11.472656 35.722656 12.320312 35.542969 12.863281 36.015625 L 14.003906 37.007812 C 14.351562 37.3125 14.46875 37.800781 14.292969 38.226562 L 13.503906 40.125 C 13.410156 40.359375 13.234375 40.550781 13.011719 40.667969 L 10.777344 41.84375 C 10.515625 41.980469 10.210938 42.003906 9.929688 41.914062 " fill-opacity="1" fill-rule="nonzero"/><path fill="#91d372" d="M 14.003906 37.007812 L 13.539062 36.601562 C 13.695312 36.882812 13.71875 37.222656 13.59375 37.53125 L 12.804688 39.429688 C 12.707031 39.660156 12.535156 39.851562 12.3125 39.972656 L 10.074219 41.148438 C 9.820312 41.28125 9.519531 41.308594 9.242188 41.21875 C 9.34375 41.535156 9.585938 41.800781 9.929688 41.914062 C 10.210938 42.003906 10.515625 41.980469 10.777344 41.84375 L 13.011719 40.667969 C 13.234375 40.550781 13.410156 40.359375 13.503906 40.125 L 14.292969 38.226562 C 14.46875 37.800781 14.351562 37.3125 14.003906 37.007812 " fill-opacity="1" fill-rule="nonzero"/><path fill="#a3e589" d="M 53.582031 25.761719 L 53.582031 14.777344 C 53.582031 14.480469 53.308594 14.261719 53.019531 14.328125 L 41.589844 16.882812 L 40.121094 21.859375 C 39.921875 22.53125 40.453125 23.199219 41.160156 23.164062 L 46.765625 22.878906 C 47.425781 22.847656 47.945312 23.4375 47.824219 24.085938 L 47.613281 25.222656 C 47.484375 25.90625 48.070312 26.515625 48.761719 26.417969 L 53.582031 25.761719 " fill-opacity="1" fill-rule="nonzero"/><path fill="#91d372" d="M 50.6875 24.507812 C 49.992188 24.601562 49.410156 23.992188 49.539062 23.3125 L 49.75 22.171875 C 49.871094 21.523438 49.351562 20.933594 48.6875 20.96875 L 43.082031 21.25 C 42.378906 21.285156 41.847656 20.621094 42.046875 19.945312 L 43.046875 16.558594 L 41.589844 16.882812 L 40.121094 21.859375 C 39.921875 22.53125 40.453125 23.199219 41.160156 23.164062 L 46.765625 22.878906 C 47.425781 22.847656 47.945312 23.4375 47.824219 24.085938 L 47.613281 25.222656 C 47.484375 25.90625 48.070312 26.515625 48.761719 26.417969 L 53.582031 25.761719 L 53.582031 24.113281 L 50.6875 24.507812 " fill-opacity="1" fill-rule="nonzero"/><path fill="#000000" d="M 20.730469 42.003906 C 21.152344 42.003906 21.566406 42.148438 21.972656 42.285156 C 22.203125 42.363281 22.425781 42.441406 22.644531 42.488281 L 37.402344 45.957031 C 38.101562 46.113281 38.839844 46.113281 39.539062 45.953125 L 52.839844 42.964844 C 53.171875 42.890625 53.402344 42.605469 53.402344 42.265625 L 53.402344 30.558594 L 46.042969 30.558594 C 44.386719 30.558594 42.757812 30.835938 41.199219 31.378906 L 26.457031 36.535156 C 26.164062 36.636719 25.957031 36.875 25.898438 37.175781 C 25.84375 37.476562 25.945312 37.777344 26.179688 37.976562 C 26.597656 38.339844 26.71875 38.894531 26.488281 39.394531 C 26.253906 39.894531 25.753906 40.167969 25.203125 40.085938 L 20.097656 39.351562 C 18.753906 39.15625 17.402344 39.558594 16.390625 40.457031 L 11.910156 44.421875 L 20.289062 42.066406 C 20.433594 42.023438 20.582031 42.003906 20.730469 42.003906 M 38.46875 46.433594 C 38.082031 46.433594 37.695312 46.390625 37.320312 46.308594 L 22.5625 42.839844 C 22.324219 42.785156 22.085938 42.707031 21.855469 42.625 C 21.335938 42.449219 20.84375 42.28125 20.386719 42.410156 L 11.25 44.984375 C 11.167969 45.003906 11.082031 44.96875 11.042969 44.894531 C 11 44.824219 11.015625 44.730469 11.078125 44.675781 L 16.148438 40.1875 C 17.242188 39.21875 18.699219 38.785156 20.148438 38.992188 L 25.257812 39.730469 C 25.722656 39.796875 26.035156 39.511719 26.15625 39.246094 C 26.28125 38.976562 26.296875 38.558594 25.941406 38.25 C 25.609375 37.964844 25.460938 37.539062 25.542969 37.109375 C 25.625 36.679688 25.921875 36.339844 26.335938 36.195312 L 41.078125 31.039062 C 42.675781 30.480469 44.347656 30.195312 46.042969 30.195312 L 53.582031 30.195312 C 53.683594 30.195312 53.765625 30.277344 53.765625 30.378906 L 53.765625 42.265625 C 53.765625 42.773438 53.417969 43.203125 52.917969 43.316406 L 39.621094 46.304688 C 39.242188 46.390625 38.855469 46.433594 38.46875 46.433594 " fill-opacity="1" fill-rule="nonzero"/><path fill="#a3e589" d="M 28.769531 22.589844 L 34.21875 16.542969 L 22.675781 13.523438 C 21.925781 13.355469 21.148438 13.375 20.40625 13.582031 L 7.246094 17.269531 C 6.785156 17.398438 6.464844 17.816406 6.464844 18.296875 L 6.464844 38.179688 L 12.097656 31.144531 C 12.734375 30.34375 13.824219 30.050781 14.785156 30.417969 L 17.445312 31.445312 C 18.894531 32 20.480469 31.03125 20.632812 29.496094 L 21.1875 23.929688 C 21.390625 21.910156 23.90625 21.089844 25.273438 22.59375 C 26.207031 23.625 27.835938 23.621094 28.769531 22.589844 " fill-opacity="1" fill-rule="nonzero"/><path fill="#b5ef9a" d="M 7.808594 19.632812 C 7.808594 19.152344 8.128906 18.734375 8.589844 18.605469 L 21.753906 14.917969 C 22.492188 14.710938 23.273438 14.691406 24.023438 14.859375 L 34.21875 16.542969 L 22.675781 13.523438 C 21.925781 13.355469 21.148438 13.375 20.40625 13.582031 L 7.246094 17.269531 C 6.785156 17.398438 6.464844 17.816406 6.464844 18.296875 L 6.464844 38.179688 L 7.808594 19.632812 " fill-opacity="1" fill-rule="nonzero"/><path fill="#91d372" d="M 31.390625 15.804688 L 26.921875 20.757812 C 25.992188 21.789062 24.363281 21.792969 23.429688 20.761719 C 22.0625 19.253906 19.546875 20.078125 19.34375 22.09375 L 18.789062 27.664062 C 18.636719 29.199219 17.050781 30.167969 15.601562 29.609375 L 12.9375 28.585938 C 11.980469 28.21875 10.890625 28.511719 10.25 29.3125 L 6.464844 34.042969 L 6.464844 38.179688 L 12.097656 31.144531 C 12.734375 30.34375 13.824219 30.050781 14.785156 30.417969 L 17.445312 31.445312 C 18.894531 32 20.480469 31.03125 20.632812 29.496094 L 21.1875 23.929688 C 21.390625 21.910156 23.90625 21.089844 25.273438 22.59375 C 26.207031 23.625 27.835938 23.621094 28.769531 22.589844 L 34.21875 16.542969 L 31.390625 15.804688 " fill-opacity="1" fill-rule="nonzero"/><path fill="#000000" d="M 21.65625 13.589844 C 21.253906 13.589844 20.847656 13.644531 20.457031 13.757812 L 7.296875 17.441406 C 6.914062 17.550781 6.644531 17.898438 6.644531 18.296875 L 6.644531 37.664062 L 11.953125 31.03125 C 12.648438 30.164062 13.8125 29.851562 14.847656 30.25 L 17.511719 31.277344 C 18.148438 31.519531 18.847656 31.457031 19.429688 31.101562 C 20.011719 30.746094 20.386719 30.15625 20.453125 29.480469 L 21.007812 23.910156 C 21.109375 22.90625 21.769531 22.082031 22.738281 21.769531 C 23.703125 21.453125 24.726562 21.722656 25.40625 22.472656 C 25.816406 22.925781 26.40625 23.183594 27.019531 23.183594 C 27.636719 23.183594 28.222656 22.921875 28.632812 22.46875 L 33.886719 16.644531 L 22.632812 13.699219 C 22.3125 13.628906 21.984375 13.589844 21.65625 13.589844 Z M 6.464844 38.359375 C 6.445312 38.359375 6.421875 38.359375 6.402344 38.351562 C 6.332031 38.324219 6.28125 38.257812 6.28125 38.179688 L 6.28125 18.296875 C 6.28125 17.738281 6.660156 17.246094 7.199219 17.09375 L 20.359375 13.410156 C 21.125 13.195312 21.941406 13.171875 22.71875 13.347656 L 22.722656 13.351562 L 34.265625 16.371094 C 34.328125 16.386719 34.375 16.433594 34.394531 16.492188 C 34.414062 16.554688 34.398438 16.617188 34.355469 16.664062 L 28.902344 22.710938 C 28.425781 23.238281 27.738281 23.542969 27.023438 23.546875 L 27.019531 23.546875 C 26.300781 23.546875 25.617188 23.242188 25.136719 22.714844 C 24.554688 22.070312 23.679688 21.839844 22.851562 22.109375 C 22.023438 22.382812 21.457031 23.085938 21.371094 23.945312 L 20.8125 29.515625 C 20.734375 30.304688 20.300781 30.992188 19.621094 31.410156 C 18.941406 31.824219 18.125 31.898438 17.382812 31.613281 L 14.71875 30.585938 C 13.828125 30.246094 12.832031 30.515625 12.238281 31.257812 L 6.605469 38.292969 C 6.570312 38.335938 6.519531 38.359375 6.464844 38.359375 " fill-opacity="1" fill-rule="nonzero"/><path fill="#000000" d="M 26.730469 26.578125 C 26.328125 26.578125 25.964844 26.761719 25.726562 27.085938 C 25.480469 27.421875 25.417969 27.835938 25.554688 28.226562 L 25.617188 28.402344 C 25.886719 29.171875 25.535156 30.015625 24.800781 30.371094 L 23.367188 31.066406 C 22.996094 31.246094 22.738281 31.59375 22.679688 32 C 22.609375 32.453125 22.789062 32.894531 23.160156 33.171875 C 23.53125 33.449219 24.003906 33.503906 24.425781 33.3125 L 26.742188 32.273438 C 27.003906 32.15625 27.222656 31.949219 27.347656 31.6875 L 28.582031 29.179688 C 28.785156 28.769531 28.742188 28.28125 28.472656 27.910156 L 27.882812 27.097656 C 27.660156 26.785156 27.292969 26.59375 26.90625 26.582031 L 26.769531 26.578125 C 26.757812 26.578125 26.742188 26.578125 26.730469 26.578125 Z M 23.90625 33.785156 C 23.566406 33.785156 23.230469 33.675781 22.941406 33.457031 C 22.464844 33.097656 22.230469 32.535156 22.320312 31.945312 C 22.398438 31.421875 22.730469 30.972656 23.207031 30.742188 L 24.644531 30.046875 C 25.210938 29.773438 25.484375 29.117188 25.273438 28.523438 L 25.210938 28.347656 C 25.039062 27.847656 25.121094 27.296875 25.433594 26.871094 C 25.746094 26.449219 26.25 26.203125 26.777344 26.21875 L 26.917969 26.222656 C 27.414062 26.234375 27.886719 26.484375 28.179688 26.886719 L 28.769531 27.699219 C 29.117188 28.179688 29.167969 28.808594 28.90625 29.339844 L 27.675781 31.847656 C 27.507812 32.179688 27.230469 32.449219 26.890625 32.601562 L 24.574219 33.640625 C 24.359375 33.738281 24.132812 33.785156 23.90625 33.785156 " fill-opacity="1" fill-rule="nonzero"/><path fill="#000000" d="M 9.984375 41.742188 C 10.21875 41.820312 10.476562 41.796875 10.691406 41.683594 L 12.925781 40.507812 C 13.113281 40.410156 13.257812 40.25 13.335938 40.058594 L 14.125 38.15625 C 14.273438 37.804688 14.175781 37.398438 13.886719 37.144531 L 12.746094 36.152344 C 12.527344 35.964844 12.246094 35.890625 11.964844 35.949219 C 11.683594 36.011719 11.453125 36.191406 11.335938 36.453125 L 9.453125 40.519531 C 9.347656 40.75 9.34375 41.015625 9.445312 41.25 C 9.546875 41.480469 9.742188 41.660156 9.984375 41.742188 Z M 10.269531 42.148438 C 10.136719 42.148438 10 42.125 9.871094 42.082031 C 9.53125 41.972656 9.253906 41.71875 9.113281 41.394531 C 8.96875 41.066406 8.972656 40.691406 9.125 40.371094 L 11.003906 36.300781 C 11.171875 35.9375 11.496094 35.679688 11.886719 35.597656 C 12.28125 35.515625 12.679688 35.617188 12.984375 35.878906 L 14.125 36.871094 C 14.53125 37.226562 14.667969 37.796875 14.460938 38.292969 L 13.671875 40.195312 C 13.5625 40.464844 13.355469 40.691406 13.097656 40.828125 L 10.859375 42.003906 C 10.679688 42.097656 10.472656 42.148438 10.269531 42.148438 " fill-opacity="1" fill-rule="nonzero"/><path fill="#000000" d="M 53.582031 25.761719 Z M 46.285156 22.726562 C 46.761719 22.726562 47.207031 22.925781 47.523438 23.285156 C 47.855469 23.664062 47.996094 24.167969 47.902344 24.660156 C 47.828125 25.070312 47.949219 25.476562 48.234375 25.777344 C 48.523438 26.074219 48.925781 26.214844 49.339844 26.160156 L 53.402344 25.605469 L 53.402344 14.632812 C 53.402344 14.582031 53.378906 14.535156 53.339844 14.503906 C 53.300781 14.472656 53.25 14.460938 53.199219 14.472656 L 41.730469 17.035156 L 40.46875 21.320312 C 40.351562 21.722656 40.433594 22.140625 40.695312 22.46875 C 40.957031 22.796875 41.347656 22.972656 41.769531 22.953125 L 46.199219 22.730469 C 46.226562 22.726562 46.257812 22.726562 46.285156 22.726562 Z M 49.160156 26.53125 C 48.710938 26.53125 48.289062 26.351562 47.972656 26.023438 C 47.605469 25.640625 47.449219 25.117188 47.546875 24.597656 C 47.617188 24.210938 47.507812 23.816406 47.25 23.523438 C 46.988281 23.226562 46.613281 23.070312 46.21875 23.089844 L 41.785156 23.3125 C 41.246094 23.339844 40.746094 23.113281 40.410156 22.691406 C 40.074219 22.269531 39.96875 21.734375 40.121094 21.21875 L 41.414062 16.832031 C 41.433594 16.769531 41.484375 16.722656 41.546875 16.707031 L 53.121094 14.121094 C 53.277344 14.085938 53.441406 14.121094 53.566406 14.222656 C 53.691406 14.320312 53.765625 14.472656 53.765625 14.632812 L 53.765625 25.761719 C 53.765625 25.851562 53.695312 25.929688 53.605469 25.941406 L 49.390625 26.515625 C 49.3125 26.527344 49.234375 26.53125 49.160156 26.53125 " fill-opacity="1" fill-rule="nonzero"/><path fill="#fc7043" d="M 45.8125 25.335938 C 45.8125 29.019531 39.101562 38.246094 39.101562 38.246094 C 39.101562 38.246094 32.386719 29.019531 32.386719 25.335938 C 32.386719 21.648438 35.394531 18.664062 39.101562 18.664062 C 42.808594 18.664062 45.8125 21.648438 45.8125 25.335938 " fill-opacity="1" fill-rule="nonzero"/><path fill="#92ce7b" d="M 39.054688 38.359375 C 38.640625 38.273438 36.753906 36.167969 34.886719 33.585938 L 35.800781 33.265625 C 35.839844 33.324219 35.875 33.382812 35.910156 33.441406 C 37.109375 35.464844 38.332031 37.3125 39.054688 38.359375 " fill-opacity="1" fill-rule="nonzero"/><path fill="#7aceca" d="M 33.976562 32.292969 C 32.25 29.742188 30.757812 26.988281 30.757812 25.335938 C 30.757812 21.648438 33.761719 18.664062 37.46875 18.664062 C 37.746094 18.664062 38.015625 18.679688 38.285156 18.710938 C 35.082031 19.097656 32.574219 21.726562 32.398438 24.96875 C 32.398438 24.988281 32.394531 25.007812 32.394531 25.027344 C 32.394531 25.03125 32.394531 25.03125 32.394531 25.035156 C 32.394531 25.039062 32.394531 25.042969 32.394531 25.046875 C 32.394531 25.058594 32.394531 25.074219 32.394531 25.085938 C 32.394531 25.089844 32.390625 25.09375 32.390625 25.097656 C 32.390625 25.097656 32.390625 25.101562 32.390625 25.105469 C 32.390625 25.109375 32.390625 25.113281 32.390625 25.117188 C 32.390625 25.121094 32.390625 25.121094 32.390625 25.125 C 32.390625 25.132812 32.390625 25.136719 32.390625 25.144531 C 32.390625 25.148438 32.390625 25.152344 32.390625 25.15625 C 32.390625 25.160156 32.390625 25.160156 32.390625 25.164062 C 32.390625 25.167969 32.390625 25.171875 32.390625 25.175781 C 32.390625 25.179688 32.390625 25.183594 32.390625 25.183594 C 32.390625 25.183594 32.390625 25.183594 32.390625 25.1875 C 32.390625 25.1875 32.390625 25.191406 32.390625 25.195312 C 32.390625 25.199219 32.390625 25.203125 32.390625 25.203125 C 32.390625 25.203125 32.390625 25.203125 32.390625 25.207031 C 32.390625 25.207031 32.390625 25.210938 32.390625 25.214844 C 32.390625 25.21875 32.390625 25.222656 32.390625 25.222656 C 32.390625 25.226562 32.390625 25.226562 32.390625 25.226562 C 32.390625 25.230469 32.390625 25.230469 32.390625 25.234375 C 32.390625 25.238281 32.390625 25.242188 32.390625 25.246094 C 32.390625 25.25 32.390625 25.25 32.390625 25.253906 C 32.386719 25.257812 32.386719 25.261719 32.386719 25.265625 C 32.386719 25.269531 32.386719 25.269531 32.386719 25.273438 C 32.386719 25.277344 32.386719 25.28125 32.386719 25.285156 C 32.386719 25.289062 32.386719 25.289062 32.386719 25.292969 C 32.386719 25.292969 32.386719 25.292969 32.386719 25.296875 C 32.386719 25.296875 32.386719 25.300781 32.386719 25.304688 C 32.386719 25.308594 32.386719 25.3125 32.386719 25.3125 C 32.386719 25.3125 32.386719 25.316406 32.386719 25.316406 C 32.386719 25.320312 32.386719 25.320312 32.386719 25.324219 C 32.386719 25.328125 32.386719 25.332031 32.386719 25.335938 C 32.386719 25.335938 32.386719 25.335938 32.386719 25.339844 C 32.390625 26.910156 33.613281 29.492188 35.011719 31.929688 L 33.976562 32.292969 " fill-opacity="1" fill-rule="nonzero"/><path fill="#6dc2bc" d="M 34.667969 33.28125 C 34.433594 32.957031 34.203125 32.625 33.976562 32.292969 L 35.011719 31.929688 C 35.210938 32.273438 35.410156 32.617188 35.613281 32.953125 L 34.667969 33.28125 " fill-opacity="1" fill-rule="nonzero"/><path fill="#000000" d="M 34.886719 33.585938 C 34.8125 33.484375 34.738281 33.382812 34.667969 33.28125 L 35.613281 32.953125 C 35.675781 33.058594 35.738281 33.164062 35.800781 33.265625 L 34.886719 33.585938 " fill-opacity="1" fill-rule="nonzero"/><path fill="#e2653c" d="M 35.910156 33.441406 C 35.875 33.382812 35.839844 33.324219 35.800781 33.265625 C 35.738281 33.164062 35.675781 33.058594 35.613281 32.953125 C 35.410156 32.617188 35.210938 32.273438 35.011719 31.929688 C 33.613281 29.492188 32.390625 26.910156 32.386719 25.339844 C 32.390625 27.0625 34.128906 30.441406 35.910156 33.441406 M 32.386719 25.335938 C 32.386719 25.332031 32.386719 25.328125 32.386719 25.324219 C 32.386719 25.328125 32.386719 25.332031 32.386719 25.335938 M 32.386719 25.324219 C 32.386719 25.320312 32.386719 25.320312 32.386719 25.316406 C 32.386719 25.320312 32.386719 25.320312 32.386719 25.324219 M 32.386719 25.3125 C 32.386719 25.3125 32.386719 25.308594 32.386719 25.304688 C 32.386719 25.308594 32.386719 25.3125 32.386719 25.3125 M 32.386719 25.304688 C 32.386719 25.300781 32.386719 25.296875 32.386719 25.296875 C 32.386719 25.296875 32.386719 25.300781 32.386719 25.304688 M 32.386719 25.292969 C 32.386719 25.289062 32.386719 25.289062 32.386719 25.285156 C 32.386719 25.289062 32.386719 25.289062 32.386719 25.292969 M 32.386719 25.285156 C 32.386719 25.28125 32.386719 25.277344 32.386719 25.273438 C 32.386719 25.277344 32.386719 25.28125 32.386719 25.285156 M 32.386719 25.273438 C 32.386719 25.269531 32.386719 25.269531 32.386719 25.265625 C 32.386719 25.269531 32.386719 25.269531 32.386719 25.273438 M 32.386719 25.265625 C 32.386719 25.261719 32.386719 25.257812 32.390625 25.253906 C 32.386719 25.257812 32.386719 25.261719 32.386719 25.265625 M 32.390625 25.253906 C 32.390625 25.25 32.390625 25.25 32.390625 25.246094 C 32.390625 25.25 32.390625 25.25 32.390625 25.253906 M 32.390625 25.246094 C 32.390625 25.242188 32.390625 25.238281 32.390625 25.234375 C 32.390625 25.238281 32.390625 25.242188 32.390625 25.246094 M 32.390625 25.234375 C 32.390625 25.230469 32.390625 25.230469 32.390625 25.226562 C 32.390625 25.230469 32.390625 25.230469 32.390625 25.234375 M 32.390625 25.222656 C 32.390625 25.222656 32.390625 25.21875 32.390625 25.214844 C 32.390625 25.21875 32.390625 25.222656 32.390625 25.222656 M 32.390625 25.214844 C 32.390625 25.210938 32.390625 25.207031 32.390625 25.207031 C 32.390625 25.207031 32.390625 25.210938 32.390625 25.214844 M 32.390625 25.203125 C 32.390625 25.203125 32.390625 25.199219 32.390625 25.195312 C 32.390625 25.199219 32.390625 25.203125 32.390625 25.203125 M 32.390625 25.195312 C 32.390625 25.191406 32.390625 25.1875 32.390625 25.1875 C 32.390625 25.1875 32.390625 25.191406 32.390625 25.195312 M 32.390625 25.183594 C 32.390625 25.183594 32.390625 25.179688 32.390625 25.175781 C 32.390625 25.179688 32.390625 25.183594 32.390625 25.183594 M 32.390625 25.175781 C 32.390625 25.171875 32.390625 25.167969 32.390625 25.164062 C 32.390625 25.167969 32.390625 25.171875 32.390625 25.175781 M 32.390625 25.164062 C 32.390625 25.160156 32.390625 25.160156 32.390625 25.15625 C 32.390625 25.160156 32.390625 25.160156 32.390625 25.164062 M 32.390625 25.15625 C 32.390625 25.152344 32.390625 25.148438 32.390625 25.144531 C 32.390625 25.148438 32.390625 25.152344 32.390625 25.15625 M 32.390625 25.144531 C 32.390625 25.136719 32.390625 25.132812 32.390625 25.125 C 32.390625 25.132812 32.390625 25.136719 32.390625 25.144531 M 32.390625 25.125 C 32.390625 25.121094 32.390625 25.121094 32.390625 25.117188 C 32.390625 25.117188 32.390625 25.121094 32.390625 25.125 M 32.390625 25.117188 C 32.390625 25.113281 32.390625 25.109375 32.390625 25.105469 C 32.390625 25.109375 32.390625 25.113281 32.390625 25.117188 M 32.390625 25.105469 C 32.390625 25.101562 32.390625 25.097656 32.390625 25.097656 C 32.390625 25.097656 32.390625 25.101562 32.390625 25.105469 M 32.390625 25.097656 C 32.390625 25.09375 32.394531 25.089844 32.394531 25.085938 C 32.394531 25.089844 32.390625 25.09375 32.390625 25.097656 M 32.394531 25.085938 C 32.394531 25.074219 32.394531 25.058594 32.394531 25.046875 C 32.394531 25.058594 32.394531 25.074219 32.394531 25.085938 M 32.394531 25.046875 C 32.394531 25.042969 32.394531 25.039062 32.394531 25.035156 C 32.394531 25.039062 32.394531 25.042969 32.394531 25.046875 M 32.394531 25.035156 C 32.394531 25.03125 32.394531 25.03125 32.394531 25.027344 C 32.394531 25.03125 32.394531 25.03125 32.394531 25.035156 M 32.394531 25.027344 C 32.394531 25.007812 32.398438 24.988281 32.398438 24.96875 C 32.398438 24.988281 32.394531 25.007812 32.394531 25.027344 M 32.398438 24.96875 C 32.574219 21.726562 35.082031 19.097656 38.285156 18.710938 C 35.082031 19.097656 32.574219 21.726562 32.398438 24.96875 " fill-opacity="1" fill-rule="nonzero"/><path fill="#ea5b34" d="M 39.101562 18.664062 C 38.753906 18.664062 38.414062 18.691406 38.082031 18.738281 C 41.304688 19.230469 43.773438 21.996094 43.773438 25.335938 C 43.773438 28.113281 39.957031 34.039062 38.082031 36.785156 C 38.695312 37.683594 39.101562 38.246094 39.101562 38.246094 C 39.101562 38.246094 45.8125 29.019531 45.8125 25.335938 C 45.8125 21.648438 42.808594 18.664062 39.101562 18.664062 " fill-opacity="1" fill-rule="nonzero"/><path fill="#000000" d="M 39.101562 18.84375 C 35.5 18.84375 32.570312 21.753906 32.570312 25.335938 C 32.570312 28.617188 38.121094 36.554688 39.101562 37.933594 C 40.082031 36.554688 45.632812 28.617188 45.632812 25.335938 C 45.632812 21.753906 42.703125 18.84375 39.101562 18.84375 Z M 39.101562 38.425781 C 39.042969 38.425781 38.988281 38.398438 38.953125 38.351562 C 38.9375 38.328125 37.253906 36.003906 35.589844 33.265625 C 33.34375 29.5625 32.207031 26.894531 32.207031 25.335938 C 32.207031 21.558594 35.300781 18.484375 39.101562 18.484375 C 42.902344 18.484375 45.996094 21.558594 45.996094 25.335938 C 45.996094 26.894531 44.855469 29.5625 42.613281 33.265625 C 40.949219 36.003906 39.265625 38.328125 39.246094 38.351562 C 39.214844 38.398438 39.160156 38.425781 39.101562 38.425781 " fill-opacity="1" fill-rule="nonzero"/><path fill="#ffffff" d="M 43.480469 25.335938 C 43.480469 27.738281 41.519531 29.6875 39.101562 29.6875 C 36.683594 29.6875 34.722656 27.738281 34.722656 25.335938 C 34.722656 22.929688 36.683594 20.980469 39.101562 20.980469 C 41.519531 20.980469 43.480469 22.929688 43.480469 25.335938 " fill-opacity="1" fill-rule="nonzero"/><path fill="#f2f0f0" d="M 39.101562 20.980469 C 38.816406 20.980469 38.539062 21.007812 38.269531 21.0625 C 40.289062 21.445312 41.816406 23.214844 41.816406 25.335938 C 41.816406 27.457031 40.289062 29.222656 38.269531 29.609375 C 38.539062 29.660156 38.816406 29.6875 39.101562 29.6875 C 41.519531 29.6875 43.480469 27.738281 43.480469 25.335938 C 43.480469 22.929688 41.519531 20.980469 39.101562 20.980469 " fill-opacity="1" fill-rule="nonzero"/><path fill="#000000" d="M 39.101562 21.160156 C 36.785156 21.160156 34.902344 23.035156 34.902344 25.335938 C 34.902344 27.636719 36.785156 29.507812 39.101562 29.507812 C 41.414062 29.507812 43.300781 27.636719 43.300781 25.335938 C 43.300781 23.035156 41.414062 21.160156 39.101562 21.160156 Z M 39.101562 29.867188 C 36.585938 29.867188 34.539062 27.835938 34.539062 25.335938 C 34.539062 22.835938 36.585938 20.800781 39.101562 20.800781 C 41.617188 20.800781 43.660156 22.835938 43.660156 25.335938 C 43.660156 27.835938 41.617188 29.867188 39.101562 29.867188 " fill-opacity="1" fill-rule="nonzero"/><path fill="#92ce7b" d="M 11.347656 24.699219 C 11.171875 24.699219 10.996094 24.632812 10.863281 24.5 C 10.59375 24.234375 10.59375 23.804688 10.863281 23.539062 L 12.128906 22.277344 L 10.863281 21.019531 C 10.59375 20.753906 10.59375 20.324219 10.863281 20.054688 C 10.996094 19.921875 11.171875 19.855469 11.347656 19.855469 C 11.523438 19.855469 11.699219 19.921875 11.832031 20.054688 L 13.097656 21.316406 L 14.363281 20.054688 C 14.5 19.921875 14.675781 19.855469 14.847656 19.855469 C 15.023438 19.855469 15.199219 19.925781 15.332031 20.054688 C 15.601562 20.324219 15.601562 20.753906 15.332031 21.019531 L 14.066406 22.277344 L 15.332031 23.539062 C 15.601562 23.804688 15.601562 24.234375 15.332031 24.5 C 15.199219 24.632812 15.023438 24.699219 14.847656 24.699219 C 14.675781 24.699219 14.5 24.632812 14.363281 24.5 L 13.097656 23.242188 L 11.832031 24.5 C 11.699219 24.632812 11.523438 24.699219 11.347656 24.699219 " fill-opacity="1" fill-rule="nonzero"/><path fill="#fc7043" d="M 14.828125 23.175781 L 13.558594 21.917969 L 14.828125 20.660156 C 15.09375 20.394531 15.09375 19.960938 14.828125 19.695312 C 14.558594 19.429688 14.125 19.429688 13.859375 19.695312 L 12.589844 20.957031 L 11.324219 19.695312 C 11.054688 19.429688 10.621094 19.429688 10.355469 19.695312 C 10.089844 19.960938 10.089844 20.394531 10.355469 20.660156 L 11.621094 21.917969 L 10.355469 23.175781 C 10.089844 23.441406 10.089844 23.875 10.355469 24.140625 C 10.621094 24.40625 11.054688 24.40625 11.324219 24.140625 L 12.589844 22.878906 L 13.859375 24.140625 C 14.125 24.40625 14.558594 24.40625 14.828125 24.140625 C 15.09375 23.875 15.09375 23.441406 14.828125 23.175781 " fill-opacity="1" fill-rule="nonzero"/><path fill="#000000" d="M 12.589844 22.699219 C 12.636719 22.699219 12.683594 22.71875 12.71875 22.753906 L 13.984375 24.011719 C 14.082031 24.105469 14.207031 24.160156 14.34375 24.160156 C 14.476562 24.160156 14.601562 24.105469 14.699219 24.011719 C 14.792969 23.917969 14.84375 23.792969 14.84375 23.660156 C 14.84375 23.523438 14.792969 23.398438 14.699219 23.304688 L 13.429688 22.046875 C 13.398438 22.011719 13.378906 21.964844 13.378906 21.917969 C 13.378906 21.871094 13.398438 21.824219 13.429688 21.789062 L 14.699219 20.53125 C 14.792969 20.4375 14.847656 20.3125 14.847656 20.179688 C 14.847656 20.042969 14.792969 19.917969 14.699219 19.824219 C 14.601562 19.730469 14.476562 19.675781 14.34375 19.675781 C 14.207031 19.675781 14.082031 19.730469 13.984375 19.824219 L 12.71875 21.082031 C 12.648438 21.152344 12.535156 21.152344 12.460938 21.082031 L 11.195312 19.824219 C 11.101562 19.730469 10.972656 19.675781 10.839844 19.675781 C 10.707031 19.675781 10.578125 19.730469 10.484375 19.824219 C 10.386719 19.917969 10.335938 20.042969 10.335938 20.179688 C 10.335938 20.3125 10.386719 20.4375 10.484375 20.53125 L 11.75 21.789062 C 11.820312 21.859375 11.820312 21.976562 11.75 22.046875 L 10.484375 23.304688 C 10.289062 23.5 10.289062 23.816406 10.484375 24.011719 C 10.679688 24.207031 11 24.207031 11.195312 24.011719 L 12.460938 22.753906 C 12.5 22.71875 12.542969 22.699219 12.589844 22.699219 Z M 14.34375 24.519531 C 14.109375 24.519531 13.894531 24.429688 13.730469 24.265625 L 12.589844 23.136719 L 11.453125 24.265625 C 11.113281 24.601562 10.566406 24.601562 10.226562 24.265625 C 9.890625 23.929688 9.890625 23.386719 10.226562 23.050781 L 11.367188 21.917969 L 10.226562 20.785156 C 10.0625 20.625 9.972656 20.40625 9.972656 20.179688 C 9.972656 19.949219 10.0625 19.730469 10.226562 19.570312 C 10.390625 19.40625 10.609375 19.316406 10.839844 19.316406 C 11.070312 19.316406 11.289062 19.40625 11.453125 19.570312 L 12.589844 20.699219 L 13.730469 19.570312 C 13.894531 19.40625 14.109375 19.316406 14.34375 19.316406 C 14.574219 19.316406 14.789062 19.40625 14.953125 19.570312 C 15.117188 19.730469 15.207031 19.949219 15.207031 20.179688 C 15.207031 20.40625 15.117188 20.625 14.953125 20.785156 L 13.816406 21.917969 L 14.953125 23.050781 C 15.117188 23.210938 15.207031 23.429688 15.207031 23.660156 C 15.207031 23.886719 15.117188 24.105469 14.953125 24.265625 C 14.789062 24.429688 14.574219 24.519531 14.34375 24.519531 " fill-opacity="1" fill-rule="nonzero"/><path fill="#000000" d="M 12.53125 24.742188 C 12.441406 24.742188 12.363281 24.675781 12.351562 24.585938 L 12.308594 24.226562 C 12.296875 24.128906 12.367188 24.039062 12.464844 24.027344 C 12.566406 24.015625 12.65625 24.085938 12.667969 24.183594 L 12.710938 24.539062 C 12.722656 24.640625 12.652344 24.730469 12.550781 24.742188 C 12.546875 24.742188 12.539062 24.742188 12.53125 24.742188 Z M 12.703125 26.171875 C 12.613281 26.171875 12.535156 26.105469 12.523438 26.015625 L 12.480469 25.65625 C 12.46875 25.558594 12.539062 25.46875 12.640625 25.457031 C 12.738281 25.445312 12.828125 25.515625 12.839844 25.613281 L 12.882812 25.972656 C 12.894531 26.070312 12.824219 26.160156 12.726562 26.171875 C 12.71875 26.171875 12.710938 26.171875 12.703125 26.171875 Z M 12.878906 27.605469 C 12.785156 27.605469 12.707031 27.535156 12.699219 27.445312 L 12.65625 27.085938 C 12.640625 26.988281 12.714844 26.898438 12.8125 26.886719 C 12.914062 26.875 13.003906 26.945312 13.015625 27.042969 L 13.058594 27.402344 C 13.070312 27.5 13 27.589844 12.898438 27.601562 C 12.890625 27.601562 12.882812 27.605469 12.878906 27.605469 Z M 13.132812 29.019531 C 13.050781 29.019531 12.980469 28.96875 12.957031 28.886719 C 12.925781 28.769531 12.894531 28.648438 12.867188 28.53125 C 12.847656 28.433594 12.90625 28.335938 13.003906 28.316406 C 13.101562 28.292969 13.199219 28.355469 13.222656 28.453125 C 13.246094 28.566406 13.277344 28.679688 13.304688 28.792969 C 13.332031 28.886719 13.277344 28.988281 13.179688 29.015625 C 13.164062 29.019531 13.148438 29.019531 13.132812 29.019531 Z M 13.648438 30.367188 C 13.582031 30.367188 13.515625 30.328125 13.484375 30.265625 C 13.429688 30.15625 13.378906 30.042969 13.328125 29.929688 C 13.289062 29.839844 13.328125 29.734375 13.421875 29.695312 C 13.511719 29.652344 13.621094 29.695312 13.660156 29.785156 C 13.707031 29.894531 13.757812 30 13.808594 30.105469 C 13.855469 30.195312 13.816406 30.300781 13.726562 30.347656 C 13.703125 30.359375 13.675781 30.367188 13.648438 30.367188 Z M 14.414062 31.585938 C 14.359375 31.585938 14.304688 31.5625 14.269531 31.515625 C 14.195312 31.417969 14.121094 31.320312 14.050781 31.21875 C 13.992188 31.136719 14.015625 31.023438 14.097656 30.96875 C 14.179688 30.910156 14.292969 30.929688 14.347656 31.011719 C 14.414062 31.109375 14.484375 31.203125 14.558594 31.296875 C 14.617188 31.375 14.601562 31.488281 14.523438 31.550781 C 14.488281 31.574219 14.453125 31.585938 14.414062 31.585938 Z M 15.398438 32.640625 C 15.355469 32.640625 15.3125 32.625 15.277344 32.59375 C 15.1875 32.511719 15.09375 32.429688 15.007812 32.34375 C 14.933594 32.273438 14.933594 32.160156 15.003906 32.089844 C 15.074219 32.019531 15.1875 32.015625 15.261719 32.085938 C 15.34375 32.167969 15.429688 32.246094 15.519531 32.324219 C 15.59375 32.390625 15.601562 32.503906 15.535156 32.578125 C 15.5 32.621094 15.449219 32.640625 15.398438 32.640625 Z M 16.566406 33.488281 C 16.535156 33.488281 16.503906 33.480469 16.476562 33.460938 C 16.371094 33.398438 16.265625 33.335938 16.160156 33.265625 C 16.078125 33.210938 16.054688 33.101562 16.109375 33.019531 C 16.164062 32.933594 16.277344 32.910156 16.359375 32.964844 C 16.457031 33.03125 16.558594 33.09375 16.660156 33.152344 C 16.746094 33.203125 16.773438 33.3125 16.722656 33.398438 C 16.691406 33.457031 16.628906 33.488281 16.566406 33.488281 Z M 17.878906 34.097656 C 17.859375 34.097656 17.839844 34.09375 17.816406 34.085938 C 17.703125 34.042969 17.585938 34 17.472656 33.953125 C 17.378906 33.917969 17.335938 33.8125 17.371094 33.71875 C 17.410156 33.628906 17.515625 33.582031 17.609375 33.621094 C 17.71875 33.664062 17.828125 33.707031 17.9375 33.746094 C 18.035156 33.777344 18.082031 33.882812 18.050781 33.976562 C 18.023438 34.050781 17.953125 34.097656 17.878906 34.097656 Z M 19.28125 34.441406 C 19.273438 34.441406 19.265625 34.441406 19.257812 34.441406 C 19.132812 34.421875 19.011719 34.402344 18.890625 34.378906 C 18.792969 34.359375 18.730469 34.265625 18.75 34.167969 C 18.765625 34.070312 18.863281 34.003906 18.960938 34.023438 C 19.074219 34.046875 19.195312 34.066406 19.308594 34.085938 C 19.410156 34.101562 19.476562 34.191406 19.460938 34.289062 C 19.449219 34.378906 19.371094 34.441406 19.28125 34.441406 Z M 20.722656 34.605469 C 20.710938 34.605469 20.703125 34.605469 20.691406 34.605469 C 20.574219 34.582031 20.457031 34.566406 20.339844 34.550781 C 20.242188 34.539062 20.171875 34.449219 20.183594 34.351562 C 20.195312 34.25 20.289062 34.183594 20.386719 34.195312 C 20.507812 34.210938 20.632812 34.226562 20.753906 34.25 C 20.851562 34.265625 20.917969 34.359375 20.902344 34.457031 C 20.886719 34.542969 20.808594 34.605469 20.722656 34.605469 Z M 22.117188 34.988281 C 22.097656 34.988281 22.074219 34.988281 22.054688 34.976562 C 21.941406 34.9375 21.832031 34.898438 21.71875 34.859375 C 21.625 34.828125 21.574219 34.726562 21.605469 34.632812 C 21.636719 34.539062 21.738281 34.488281 21.832031 34.519531 C 21.949219 34.554688 22.066406 34.597656 22.183594 34.640625 C 22.277344 34.675781 22.324219 34.78125 22.285156 34.875 C 22.257812 34.945312 22.191406 34.988281 22.117188 34.988281 Z M 23.414062 35.632812 C 23.378906 35.632812 23.347656 35.625 23.316406 35.605469 C 23.21875 35.542969 23.117188 35.484375 23.011719 35.425781 C 22.925781 35.375 22.894531 35.265625 22.945312 35.179688 C 22.992188 35.09375 23.101562 35.0625 23.191406 35.109375 C 23.296875 35.171875 23.40625 35.234375 23.507812 35.300781 C 23.59375 35.351562 23.621094 35.460938 23.566406 35.546875 C 23.53125 35.601562 23.472656 35.632812 23.414062 35.632812 Z M 24.5625 36.507812 C 24.515625 36.507812 24.472656 36.492188 24.4375 36.460938 C 24.351562 36.378906 24.261719 36.300781 24.171875 36.226562 C 24.097656 36.160156 24.085938 36.046875 24.152344 35.972656 C 24.21875 35.894531 24.332031 35.886719 24.40625 35.949219 C 24.503906 36.03125 24.59375 36.113281 24.683594 36.195312 C 24.757812 36.265625 24.761719 36.378906 24.695312 36.449219 C 24.65625 36.488281 24.609375 36.507812 24.5625 36.507812 Z M 25.589844 37.523438 C 25.542969 37.523438 25.496094 37.507812 25.460938 37.46875 L 25.207031 37.214844 C 25.132812 37.144531 25.132812 37.03125 25.207031 36.960938 C 25.277344 36.890625 25.390625 36.890625 25.460938 36.960938 L 25.71875 37.214844 C 25.789062 37.285156 25.789062 37.402344 25.71875 37.46875 C 25.683594 37.507812 25.636719 37.523438 25.589844 37.523438 Z M 26.617188 38.542969 C 26.570312 38.542969 26.523438 38.523438 26.488281 38.492188 C 26.460938 38.464844 26.433594 38.4375 26.402344 38.40625 L 26.230469 38.234375 C 26.160156 38.164062 26.160156 38.050781 26.230469 37.980469 C 26.300781 37.910156 26.414062 37.910156 26.488281 37.980469 L 26.660156 38.152344 C 26.6875 38.179688 26.714844 38.207031 26.742188 38.234375 C 26.8125 38.300781 26.816406 38.414062 26.746094 38.488281 C 26.710938 38.523438 26.664062 38.542969 26.617188 38.542969 Z M 38.511719 38.980469 C 38.433594 38.980469 38.363281 38.929688 38.335938 38.851562 C 38.308594 38.753906 38.363281 38.65625 38.457031 38.625 L 38.804688 38.519531 C 38.902344 38.492188 39.003906 38.546875 39.03125 38.640625 C 39.058594 38.734375 39.007812 38.835938 38.910156 38.867188 L 38.5625 38.96875 C 38.546875 38.976562 38.527344 38.980469 38.511719 38.980469 Z M 37.125 39.398438 C 37.046875 39.398438 36.972656 39.347656 36.949219 39.269531 C 36.921875 39.175781 36.976562 39.074219 37.070312 39.046875 L 37.417969 38.941406 C 37.515625 38.910156 37.613281 38.964844 37.644531 39.0625 C 37.671875 39.15625 37.621094 39.257812 37.523438 39.285156 L 37.175781 39.390625 C 37.160156 39.394531 37.140625 39.398438 37.125 39.398438 Z M 27.746094 39.441406 C 27.714844 39.441406 27.679688 39.429688 27.648438 39.410156 C 27.542969 39.34375 27.441406 39.273438 27.34375 39.203125 C 27.261719 39.144531 27.242188 39.03125 27.300781 38.949219 C 27.359375 38.871094 27.472656 38.851562 27.554688 38.910156 C 27.648438 38.976562 27.746094 39.046875 27.847656 39.109375 C 27.929688 39.164062 27.953125 39.273438 27.898438 39.359375 C 27.863281 39.410156 27.804688 39.441406 27.746094 39.441406 Z M 35.738281 39.816406 C 35.660156 39.816406 35.585938 39.769531 35.5625 39.691406 C 35.535156 39.597656 35.589844 39.496094 35.683594 39.464844 L 36.03125 39.359375 C 36.125 39.332031 36.226562 39.386719 36.257812 39.480469 C 36.285156 39.574219 36.234375 39.675781 36.136719 39.707031 L 35.789062 39.8125 C 35.773438 39.816406 35.753906 39.816406 35.738281 39.816406 Z M 29.03125 40.105469 C 29.007812 40.105469 28.984375 40.101562 28.960938 40.09375 C 28.847656 40.046875 28.734375 39.996094 28.621094 39.945312 C 28.53125 39.902344 28.492188 39.796875 28.535156 39.707031 C 28.574219 39.617188 28.683594 39.578125 28.773438 39.617188 C 28.878906 39.667969 28.988281 39.714844 29.097656 39.757812 C 29.191406 39.796875 29.234375 39.902344 29.199219 39.992188 C 29.167969 40.0625 29.101562 40.105469 29.03125 40.105469 Z M 34.351562 40.238281 C 34.273438 40.238281 34.199219 40.1875 34.175781 40.109375 C 34.148438 40.015625 34.203125 39.914062 34.296875 39.886719 L 34.644531 39.78125 C 34.738281 39.753906 34.839844 39.804688 34.871094 39.902344 C 34.898438 39.996094 34.847656 40.097656 34.75 40.125 L 34.402344 40.230469 C 34.386719 40.234375 34.367188 40.238281 34.351562 40.238281 Z M 30.417969 40.515625 C 30.40625 40.515625 30.394531 40.515625 30.382812 40.511719 C 30.261719 40.488281 30.140625 40.460938 30.019531 40.433594 C 29.921875 40.410156 29.863281 40.3125 29.886719 40.214844 C 29.910156 40.117188 30.011719 40.058594 30.109375 40.082031 C 30.222656 40.109375 30.335938 40.136719 30.453125 40.15625 C 30.550781 40.175781 30.613281 40.273438 30.597656 40.371094 C 30.578125 40.457031 30.503906 40.515625 30.417969 40.515625 Z M 32.941406 40.574219 C 32.855469 40.574219 32.777344 40.511719 32.761719 40.421875 C 32.75 40.324219 32.816406 40.230469 32.917969 40.21875 C 33.03125 40.199219 33.148438 40.179688 33.265625 40.160156 C 33.363281 40.140625 33.457031 40.203125 33.476562 40.300781 C 33.496094 40.398438 33.433594 40.492188 33.335938 40.511719 C 33.214844 40.535156 33.089844 40.554688 32.96875 40.574219 C 32.960938 40.574219 32.949219 40.574219 32.941406 40.574219 Z M 31.859375 40.652344 C 31.734375 40.652344 31.609375 40.652344 31.488281 40.644531 C 31.386719 40.640625 31.3125 40.554688 31.316406 40.457031 C 31.320312 40.355469 31.40625 40.28125 31.503906 40.285156 C 31.621094 40.289062 31.742188 40.292969 31.859375 40.292969 C 31.960938 40.292969 32.039062 40.375 32.039062 40.472656 C 32.039062 40.574219 31.960938 40.652344 31.859375 40.652344 " fill-opacity="1" fill-rule="nonzero"/></svg>